<?xml version="1.0" encoding="UTF-8"?><svg id="Layer_2" xmlns="http://www.w3.org/2000/svg" viewBox="0 0 468.01 58.97"><defs><style>.cls-1{fill:#653530;}.cls-2{fill:#4d4d4f;}</style></defs><g id="Layer_1-2"><g><g><path class="cls-1" d="M299.38,34.38c.07,.55,.21,1.84,1.11,2.05,.39,.09,.85,.14,1.18,.16,.09,0,.3,.02,.3,.14s-.09,.18-.35,.18c-.41,0-2.91-.09-3.64-.14-.51-.05-.69-.09-.69-.21,0-.07,.09-.16,.21-.21,.12-.05,.18-.32,.14-.65l-1.01-9.87-4.89,9.92c-.44,.9-.51,1.11-.71,1.11-.14,0-.25-.21-.69-.99-.37-.67-2.21-4.36-2.35-4.57-.14-.28-2.4-4.75-2.58-5.23l-.85,8.88c-.02,.32-.02,.53-.02,.88,0,.25,.11,.6,.58,.69,.25,.05,.41,.05,.65,.07,.18,.02,.23,.09,.23,.14,0,.16-.14,.18-.39,.18-.74,0-1.73-.07-1.91-.07-.23,0-1.2,.07-1.77,.07-.21,0-.35-.02-.35-.18,0-.05,.09-.14,.3-.14,.16,0,.18,0,.44-.02,.55-.05,.76-.6,.88-1.52l1.54-12.66c.05-.39,.14-.58,.25-.58s.18,.07,.35,.37l6.18,11.97,5.88-11.95c.12-.25,.21-.39,.35-.39s.21,.21,.23,.58l1.45,11.99Z"/><path class="cls-1" d="M314.68,27.76c0-3.02,0-3.57-.05-4.2-.05-.65-.21-.97-.88-1.11-.14-.02-.37-.05-.55-.05-.16,0-.3-.07-.3-.14,0-.14,.12-.18,.35-.18,.46,0,1.08,.05,2.38,.07,.11,0,4.22,0,4.68-.02,.46-.02,.72-.05,.9-.11,.14-.05,.16-.07,.25-.07,.05,0,.09,.05,.09,.16,0,.14-.14,.46-.18,1.04-.02,.39-.05,.76-.07,1.2,0,.21-.05,.35-.16,.35s-.16-.09-.16-.25c-.02-.35-.09-.58-.16-.74-.14-.46-.35-.62-1.5-.69-.3-.02-2.58-.05-2.63-.05-.07,0-.11,.05-.11,.18v5.23c0,.14,.02,.23,.14,.23,.28,0,2.63-.02,3.11-.07,.53-.02,.88-.09,1.06-.35,.09-.14,.16-.18,.25-.18,.05,0,.09,.02,.09,.14s-.09,.55-.16,1.22c-.07,.65-.07,1.11-.09,1.41-.02,.18-.07,.25-.16,.25-.12,0-.14-.14-.14-.3,0-.14-.02-.37-.07-.55-.09-.3-.23-.62-1.11-.69-.53-.05-2.4-.09-2.77-.09-.14,0-.16,.07-.16,.16v1.68c0,.72-.02,2.74,0,3.14,.05,.85,.16,1.29,.64,1.5,.35,.16,.9,.21,1.68,.21,.44,0,1.18,.02,1.75-.14,.69-.21,.85-.67,1.04-1.52,.05-.23,.12-.32,.21-.32,.14,0,.14,.21,.14,.35,0,.16-.18,1.61-.25,2.01-.09,.46-.25,.51-1.01,.51-1.52,0-2.17-.05-2.97-.05-.81-.02-1.87-.07-2.72-.07-.53,0-.97,.07-1.52,.07-.21,0-.32-.05-.32-.16,0-.09,.09-.16,.21-.16,.14,0,.3-.02,.46-.07,.41-.09,.69-.39,.74-1.82,.02-.78,.05-1.73,.05-3.48v-3.46Z"/><path class="cls-1" d="M335.9,27.76c0-3.04,0-3.62-.05-4.22-.05-.62-.23-.95-.9-1.08-.14-.02-.48-.05-.67-.05-.11,0-.23-.07-.23-.14,0-.14,.14-.18,.35-.18,.95,0,2.4,.07,2.47,.07,.16,0,1.36-.07,2.65-.07,2.03,0,5.81-.21,8.25,2.26,1.01,1.02,1.96,2.63,1.96,4.96,0,2.45-1.06,4.36-2.19,5.51-.9,.9-2.65,2.26-6.16,2.26-.88,0-2.01-.05-2.88-.12-.88-.05-1.59-.11-1.66-.11-.05,0-.35,0-.78,.02-.44,0-.99,.05-1.34,.05-.21,0-.32-.05-.32-.16,0-.07,.07-.16,.25-.16s.35-.02,.53-.07c.39-.07,.53-.55,.6-1.06,.14-.85,.12-2.42,.12-4.29v-3.41Zm1.89,1.96c0,2.07,.02,3.87,.02,4.22,.02,.72,.07,1.34,.23,1.54,.25,.39,.99,.88,3.39,.88,1.89,0,3.6-.6,4.8-1.8,1.01-1.01,1.5-2.74,1.5-4.59,0-2.61-1.2-4.2-1.98-4.96-1.96-1.96-4.22-2.19-6.5-2.19-.32,0-1.04,.07-1.18,.16-.18,.09-.25,.18-.25,.39-.02,.67-.02,2.63-.02,4.01v2.33Z"/><path class="cls-1" d="M363.56,27.76c0-3.04,0-3.6-.05-4.22-.05-.62-.18-.97-.67-1.06-.23-.05-.39-.05-.53-.07-.16-.02-.25-.07-.25-.16,0-.12,.09-.16,.35-.16,.72,0,2.03,.07,2.1,.07,.09,0,1.43-.07,2.08-.07,.23,0,.35,.05,.35,.16,0,.09-.07,.14-.25,.16-.14,.02-.25,.02-.41,.05-.67,.09-.74,.44-.78,1.11-.05,.62-.02,1.15-.02,4.2v3.46c0,1.77-.02,3.39,.09,4.22,.09,.67,.18,.92,.78,1.06,.3,.07,.78,.09,.88,.09,.21,.02,.25,.07,.25,.16s-.09,.16-.32,.16c-1.18,0-2.51-.07-2.63-.07-.07,0-1.43,.07-2.08,.07-.21,0-.37-.05-.37-.16,0-.09,.09-.16,.3-.16,.12,0,.37-.02,.55-.07,.39-.09,.46-.55,.53-1.11,.12-.83,.12-2.47,.12-4.2v-3.46Z"/><path class="cls-1" d="M382.82,31.29c-.12,0-.18,.07-.23,.18l-1.01,2.88c-.23,.64-.39,1.27-.39,1.64,0,.41,.25,.6,.76,.6h.16c.21,0,.28,.07,.28,.16,0,.12-.18,.16-.35,.16-.51,0-1.57-.07-1.82-.07-.23,0-1.24,.07-2.21,.07-.25,0-.37-.05-.37-.16,0-.09,.09-.16,.28-.16,.12,0,.32,0,.46-.02,.99-.09,1.38-.85,1.77-1.82l4.61-12.15c.25-.67,.32-.78,.48-.78,.12,0,.21,.09,.46,.74,.32,.76,3.46,8.81,4.68,11.69,.76,1.82,1.43,2.12,1.75,2.24,.3,.12,.62,.12,.78,.12s.28,.05,.28,.16-.09,.16-.35,.16c-.23,0-1.96,0-3.51-.05-.44-.02-.58-.05-.58-.16,0-.07,.07-.14,.16-.16,.09-.05,.23-.16,.09-.51l-1.82-4.63c-.05-.07-.09-.12-.18-.12h-4.2Zm3.92-.81c.09,0,.09-.07,.07-.14l-1.82-5.1c-.11-.32-.14-.32-.25,0l-1.73,5.1c-.05,.09,0,.14,.05,.14h3.69Z"/><path class="cls-1" d="M408.13,31.22c0,1.77,.02,3.41,.11,4.26,.07,.55,.12,.88,.69,1.02,.28,.07,.71,.09,.9,.09s.28,.07,.28,.14c0,.12-.07,.18-.3,.18-1.18,0-2.54-.07-2.63-.07s-1.45,.07-2.05,.07c-.25,0-.35-.05-.35-.16,0-.07,.07-.16,.25-.16s.32,0,.51-.02c.44-.07,.51-.35,.6-1.13,.09-.83,.09-2.49,.09-4.22v-8.23c-.76,0-1.98,0-2.9,.02-1.48,.02-1.8,.25-2.12,.74-.21,.32-.3,.6-.35,.71-.07,.16-.11,.18-.21,.18s-.12-.09-.12-.21c-.02-.14,.32-1.66,.46-2.28,.07-.28,.14-.37,.21-.37,.16,0,.6,.21,1.02,.25,.81,.09,1.45,.12,1.48,.12h7.56c.65,0,1.34-.05,1.66-.12,.3-.07,.37-.09,.44-.09,.09,0,.14,.11,.14,.21,0,.64-.05,2.17-.05,2.35,0,.21-.09,.28-.16,.28-.12,0-.16-.09-.16-.28,0-.07,0-.09-.02-.32-.09-.92-.39-1.15-2.72-1.18-.88,0-1.59-.02-2.26-.02v8.23Z"/><path class="cls-1" d="M424.28,29.47c0-3.07,2.37-7.66,8.07-7.66,4.57,0,8.05,2.72,8.05,7.35s-3.25,8-8.16,8c-5.65,0-7.95-4.2-7.95-7.7Zm13.95,.28c0-4.63-2.86-7.22-6.02-7.22s-5.79,1.98-5.79,6.34,2.51,7.52,6.39,7.52c1.54,0,5.42-.78,5.42-6.64Z"/><path class="cls-1" d="M454.27,27.76c0-3.04,0-3.6-.05-4.22-.05-.62-.21-.97-.92-1.11-.14-.02-.37-.05-.55-.05-.16,0-.25-.05-.25-.14s.07-.16,.28-.16c.99,0,2.4,.07,2.44,.07,.21,0,1.77-.07,2.42-.07,1.29,0,2.7,.11,3.78,.88,.44,.32,1.38,1.24,1.38,2.81,0,1.27-.62,2.88-2.44,4.36,1.68,2.08,3.07,3.78,4.24,5,1.11,1.13,1.8,1.32,2.44,1.41,.16,.02,.65,.05,.72,.05,.18,0,.25,.07,.25,.16,0,.12-.09,.16-.41,.16h-1.61c-1.09,0-1.59-.07-2.1-.28-.97-.42-1.66-1.45-2.86-3-.9-1.11-1.82-2.35-2.21-2.84-.09-.09-.14-.14-.28-.14l-2.37-.02c-.09,0-.12,.02-.12,.12v.32c0,1.84,0,3.53,.12,4.36,.07,.55,.14,1.01,.9,1.11,.23,.02,.49,.05,.67,.05,.21,0,.3,.07,.3,.14,0,.12-.09,.18-.32,.18-1.2,0-2.49-.07-2.58-.07-.37,0-1.38,.07-2.01,.07-.23,0-.32-.05-.32-.18,0-.07,.14-.14,.28-.14,.16,0,.32,0,.51-.05,.39-.07,.53-.32,.6-.88,.11-.83,.09-2.72,.09-4.45v-3.46Zm1.77,1.64c0,.11,.02,.23,.12,.28,.3,.16,1.22,.3,2.05,.3,.48,0,1.06-.02,1.54-.35,.69-.44,1.15-1.45,1.15-2.93,0-2.51-1.34-3.9-3.39-3.9-.58,0-1.06,.05-1.34,.12-.07,.02-.14,.09-.14,.21v6.27Z"/></g><rect class="cls-2" x="257.76" width="1.16" height="58.97"/><path class="cls-1" d="M2.38,15.69c0-3.39,0-4.04-.05-4.77-.05-.67-.16-1.29-1.04-1.38-.18-.02-.41-.02-.85-.07-.35-.02-.44-.14-.44-.25,0-.14,.14-.21,.53-.21,.58,0,2.7,.07,3.71,.07,.76,0,1.8-.02,3.74-.05,3.94,.02,7.03,.53,9.13,2.68,1.18,1.18,2.21,3.11,2.21,5.86s-1.22,5.07-2.54,6.32c-1.13,1.15-3.25,2.74-7.89,2.74-.92,0-1.71-.02-2.47-.09-.9-.09-1.84-.16-2.28-.16-.55,0-1.11,0-1.75,.02s-.95,.05-1.59,.05c-.39,0-.46-.12-.46-.23,0-.16,.18-.23,.44-.23,.3-.02,.46-.05,.71-.09,.46-.07,.69-.51,.76-1.41,.07-1.11,.11-2.74,.11-4.73v-4.06Zm4.08,2.58c0,2.45,.02,4.04,.05,4.47,.05,.95,.14,1.41,.39,1.66,.41,.51,1.36,.83,2.38,.83,1.61,0,2.97-.35,4.2-1.61,1.2-1.2,1.5-3.25,1.5-5.42s-.76-3.97-1.73-5.28c-1.59-2.08-3.78-2.51-5.3-2.51-.51,0-1.04,.07-1.25,.18-.18,.09-.21,.21-.21,.41,.02,.78-.02,2.44-.02,4.31v2.95Z"/><path class="cls-1" d="M34.46,21.66c-.11,0-.16,.05-.21,.16l-.71,1.89c-.23,.6-.37,1.2-.37,1.48,0,.44,.21,.65,.69,.69,.25,.05,.62,.07,.81,.09,.35,0,.41,.12,.41,.23,0,.18-.18,.23-.48,.23-1.04,0-1.82-.07-3.04-.07-.25,0-1.78,.07-2.93,.07-.32,0-.46-.09-.46-.23,0-.18,.16-.23,.44-.23,.28-.02,.51-.05,.74-.09,.81-.16,1.27-.88,1.75-1.98l6.16-13.93c.44-.99,.69-1.34,.95-1.34,.23,0,.44,.32,.83,1.15,.6,1.29,4.47,10.12,6.04,13.63,.78,1.8,1.29,2.35,2.1,2.47,.25,.07,.53,.07,.74,.09,.3,0,.44,.09,.44,.23,0,.16-.16,.23-.6,.23-2.26,0-4.89-.05-6.36-.07-.37,0-.51-.07-.51-.21s.11-.23,.32-.28c.25-.05,.35-.21,.28-.42l-1.54-3.67c-.02-.09-.11-.14-.18-.14h-5.28Zm4.61-1.85c.14,0,.14-.07,.11-.12l-2.03-4.93c-.07-.16-.12-.12-.16,0l-1.96,4.93c-.02,.07,.02,.12,.09,.12h3.94Z"/><path class="cls-1" d="M59.16,9.76c.02-.69,.11-1.11,.39-1.11,.18,0,.3,.07,.9,.55,.97,.81,2.17,1.96,7.45,6.8,2.35,2.17,3.94,3.71,4.57,4.27l-.14-8.65c-.05-1.29-.16-1.89-1.08-2.05-.32-.07-.69-.09-1.01-.12-.3,0-.41-.12-.41-.23,0-.16,.21-.23,.46-.23,.92,0,2.42,.07,3.34,.07,.51,0,1.66-.07,2.63-.07,.35,0,.51,.07,.51,.21,0,.12-.12,.25-.39,.25-.3,.02-.41,.02-.58,.07-.76,.09-.99,.48-1.06,1.91-.18,4.63-.18,9.25-.28,13.88,0,1.18-.16,1.43-.46,1.43-.37,0-1.08-.55-2.58-1.87-1.57-1.38-3.6-3.21-4.98-4.47-1.29-1.18-3.6-3.34-5.28-4.98l.23,7.86c.05,1.66,.14,2.28,.78,2.51,.35,.11,.76,.11,1.22,.16,.35,.02,.46,.09,.46,.23,0,.18-.18,.23-.55,.23-.81,0-1.54-.05-2.97-.07-.53,0-2.24,.07-3.14,.07-.32,0-.51-.05-.51-.23,0-.14,.11-.23,.44-.23,.21-.02,.51-.02,.76-.07,.9-.14,1.02-.72,1.09-2.86,.11-4.75,.07-10.31,.21-13.28Z"/><path class="cls-1" d="M90.16,15.69c0-3.58,0-4.24-.07-4.98-.05-.64-.3-1.06-.81-1.15-.16-.05-.39-.07-.69-.09-.28,0-.44-.09-.44-.25,0-.14,.12-.21,.51-.21,.92,0,3.18,.07,3.37,.07,.21,0,2.93-.07,3.76-.07,.39,0,.51,.09,.51,.23,0,.18-.21,.23-.44,.23-.23,.02-.37,.02-.67,.07-.6,.12-.83,.41-.88,1.24-.07,.74-.07,1.34-.07,4.91v4.06c0,1.82,.02,3.97,.12,4.94,.05,.6,.18,1.01,.88,1.18,.3,.07,.72,.09,1.01,.12,.39,0,.48,.09,.48,.23,0,.12-.11,.23-.48,.23-1.57,0-4.04-.07-4.24-.07-.12,0-2.54,.07-3.32,.07-.37,0-.55-.05-.55-.23,0-.16,.18-.23,.46-.23,.23-.02,.46-.05,.72-.09,.48-.07,.64-.58,.71-1.25,.09-.97,.14-2.63,.14-4.89v-4.06Z"/><path class="cls-1" d="M110.65,15.69c0-3.76-.02-4.22-.07-4.96-.05-.67-.25-1.06-.83-1.2-.21-.05-.53-.05-.76-.07-.3-.02-.42-.12-.42-.25s.14-.21,.51-.21c1.32,0,2.42,.07,3.44,.07,.48,0,6.13-.02,6.5-.02,.46,0,1.01-.05,1.25-.09,.16-.05,.28-.09,.37-.09,.12,0,.14,.09,.14,.21s-.05,.35-.11,1.01c-.07,.46-.12,1.27-.18,2.47,0,.18-.09,.32-.23,.32-.11,0-.21-.12-.23-.32,0-.25-.02-.48-.12-.81-.11-.53-.41-.83-1.52-.92-.76-.07-2.77-.12-3.46-.12-.14,0-.18,.07-.18,.23v5.07c0,.16,.02,.28,.18,.28,.65,.02,2.51,0,3.34-.02,1.13-.05,1.43-.12,1.68-.53,.14-.21,.21-.3,.32-.3,.14,0,.14,.14,.14,.28,0,.23-.12,1.06-.18,1.96-.02,.53-.02,1.66-.02,1.91,0,.3-.07,.44-.21,.44-.16,0-.21-.16-.25-.37-.02-.18-.05-.35-.07-.53-.09-.67-.41-1.06-1.54-1.13-.65-.05-2.54-.09-3.25-.09-.11,0-.14,.11-.14,.3v1.59c0,.78-.02,2.14,0,3.02,.02,1.61,.35,1.98,2.91,1.98,.6,0,1.5-.02,2.14-.28,.64-.25,.92-.76,1.13-1.82,.05-.28,.14-.41,.28-.41,.18,0,.21,.23,.21,.51,0,.9-.25,2.65-.37,3.09-.16,.6-.32,.62-1.18,.62-3.18,0-4.91-.14-7.33-.14-1.08,0-2.05,.07-3.32,.07-.41,0-.55-.07-.55-.23,0-.11,.12-.23,.46-.23,.28-.02,.51-.05,.69-.09,.64-.09,.74-.97,.78-2.42,.05-.92,.07-2.28,.07-3.71v-4.06Z"/><path class="cls-1" d="M139.07,19.77c0,2.33-.07,3.99,.32,4.47,.32,.44,.76,.55,2.67,.55,1.27,0,2.01-.02,2.65-.37,.55-.25,.95-.85,1.2-1.94,.07-.25,.12-.44,.3-.44,.16,0,.18,.12,.18,.44,0,.53-.25,2.72-.48,3.39-.18,.6-.37,.62-1.29,.62-3.18,0-5.33-.14-7.77-.14-1.08,0-2.33,.07-3.6,.07-.32,0-.51-.05-.51-.25,0-.14,.14-.21,.46-.21,.28-.02,.53-.05,.78-.09,.83-.14,.85-.55,.92-2.4,.05-.92,.07-2.31,.07-3.74v-4.06c0-3.76-.02-4.17-.07-4.91-.05-.64-.21-1.04-.78-1.2-.21-.07-.55-.09-.9-.12-.25,0-.48-.05-.48-.23s.23-.23,.69-.23c1.31,0,2.51,.07,3.41,.07,.21,0,3.07-.07,3.9-.07,.41,0,.55,.07,.55,.21,0,.21-.23,.25-.55,.25-.23,.02-.46,.02-.78,.09-.62,.12-.78,.55-.83,1.36-.05,.74-.07,1.2-.07,5v3.85Z"/><path class="cls-2" d="M194.04,23.46c.09,.83,.25,2.12,1.24,2.45,.67,.21,1.2,.21,1.43,.21,.11,0,.25,.02,.25,.14,0,.14-.07,.18-.35,.18-.51,0-3.14-.07-3.99-.14-.53-.05-.65-.12-.65-.23,0-.09,.05-.11,.16-.16,.16-.07,.14-.41,.09-.83l-1.11-12.04-5.72,12.13c-.48,1.01-.55,1.22-.76,1.22-.16,0-.28-.23-.72-1.06-.6-1.13-2.58-5.12-2.7-5.35-.21-.42-2.86-6.11-3.11-6.73l-.95,10.86c-.02,.37-.05,.69-.05,1.08,0,.58,.28,.76,.62,.83,.39,.09,.69,.09,.83,.09s.23,.05,.23,.12c0,.16-.12,.21-.35,.21-.85,0-2.03-.07-2.21-.07-.21,0-1.32,.07-1.94,.07-.23,0-.39-.02-.39-.18,0-.09,.12-.14,.23-.14,.18,0,.35,0,.69-.07,.76-.14,.81-.97,.92-1.91l1.66-14.99c.02-.25,.12-.46,.25-.46s.23,.09,.35,.35l7.06,14.5,6.78-14.48c.09-.21,.18-.37,.35-.37s.23,.18,.28,.62l1.54,14.16Z"/><path class="cls-2" d="M204.07,25.32c0-.53,.39-1.22,1.22-1.22,.67,0,1.18,.48,1.18,1.2s-.51,1.25-1.2,1.25c-.81,0-1.2-.67-1.2-1.22Z"/><path class="cls-2" d="M217.51,19.79c0,3.39,.09,4.86,.51,5.28,.37,.37,.97,.53,2.77,.53,1.22,0,2.24-.02,2.79-.69,.3-.37,.53-.95,.6-1.38,.02-.18,.07-.3,.21-.3,.12,0,.14,.09,.14,.35s-.16,1.64-.35,2.31c-.16,.53-.23,.62-1.45,.62-1.98,0-3.94-.14-6.18-.14-.71,0-1.41,.07-2.26,.07-.25,0-.37-.05-.37-.18,0-.07,.05-.14,.18-.14,.21,0,.48-.05,.69-.09,.46-.09,.58-.6,.67-1.27,.12-.97,.12-2.79,.12-5v-4.06c0-3.6,0-4.24-.05-4.98-.05-.78-.23-1.15-.99-1.31-.18-.05-.58-.07-.78-.07-.09,0-.18-.05-.18-.14,0-.14,.12-.18,.37-.18,1.04,0,2.49,.07,2.6,.07s1.8-.07,2.49-.07c.25,0,.37,.05,.37,.18,0,.09-.09,.14-.18,.14-.16,0-.48,.02-.76,.07-.67,.11-.85,.51-.9,1.31-.05,.74-.05,1.38-.05,4.98v4.1Z"/><path class="cls-2" d="M232.21,25.32c0-.53,.39-1.22,1.22-1.22,.67,0,1.18,.48,1.18,1.2s-.51,1.25-1.2,1.25c-.81,0-1.2-.67-1.2-1.22Z"/><g><path class="cls-2" d="M14.43,40.01c.07,0,.14-.02,.14-.14v-.48c0-3.6,0-4.24-.05-4.98-.05-.78-.23-1.15-.99-1.31-.18-.05-.58-.07-.78-.07-.09,0-.18-.05-.18-.14,0-.14,.11-.18,.37-.18,1.04,0,2.49,.07,2.61,.07s1.57-.07,2.26-.07c.25,0,.37,.05,.37,.18,0,.09-.09,.14-.18,.14-.16,0-.3,.02-.58,.07-.62,.11-.81,.51-.85,1.31-.05,.74-.05,1.38-.05,4.98v4.06c0,2.21,0,4.04,.11,5,.07,.67,.21,1.18,.9,1.27,.32,.05,.83,.09,1.04,.09,.14,0,.18,.07,.18,.14,0,.12-.11,.18-.37,.18-1.27,0-2.72-.07-2.84-.07s-1.57,.07-2.26,.07c-.25,0-.37-.05-.37-.18,0-.07,.05-.14,.18-.14,.21,0,.48-.05,.69-.09,.46-.09,.58-.6,.67-1.27,.12-.97,.12-2.79,.12-5v-2.42c0-.09-.07-.14-.14-.14H4.66c-.07,0-.14,.02-.14,.14v2.42c0,2.21,0,4.04,.12,5,.07,.67,.21,1.18,.9,1.27,.32,.05,.83,.09,1.04,.09,.14,0,.18,.07,.18,.14,0,.12-.12,.18-.37,.18-1.27,0-2.72-.07-2.84-.07s-1.57,.07-2.26,.07c-.25,0-.37-.05-.37-.18,0-.07,.05-.14,.18-.14,.21,0,.48-.05,.69-.09,.46-.09,.58-.6,.67-1.27,.11-.97,.11-2.79,.11-5v-4.06c0-3.6,0-4.24-.05-4.98-.05-.78-.23-1.15-.99-1.31-.18-.05-.58-.07-.78-.07-.09,0-.18-.05-.18-.14,0-.14,.11-.18,.37-.18,1.04,0,2.49,.07,2.61,.07s1.57-.07,2.26-.07c.25,0,.37,.05,.37,.18,0,.09-.09,.14-.18,.14-.16,0-.3,.02-.58,.07-.62,.11-.81,.51-.85,1.31-.05,.74-.05,1.38-.05,4.98v.48c0,.12,.07,.14,.14,.14H14.43Z"/><path class="cls-2" d="M33.88,39.38c0-3.6,0-4.24-.05-4.98-.05-.78-.23-1.15-.99-1.31-.16-.05-.46-.05-.67-.07-.16-.02-.3-.05-.3-.14,0-.14,.11-.18,.37-.18,.53,0,1.15,0,2.61,.07,.16,0,4.75,0,5.28-.02,.51-.02,.92-.07,1.06-.14s.18-.09,.25-.09,.09,.09,.09,.21c0,.16-.14,.44-.18,1.08-.02,.35-.05,.78-.09,1.38-.02,.23-.09,.39-.18,.39-.14,0-.18-.12-.18-.3,0-.3-.05-.58-.11-.76-.16-.53-.65-.76-1.66-.85-.39-.05-2.9-.07-3.16-.07-.09,0-.14,.07-.14,.23v6.36c0,.16,.02,.23,.14,.23,.3,0,3.14,0,3.67-.05,.62-.05,.92-.11,1.15-.39,.11-.14,.18-.23,.28-.23,.07,0,.12,.05,.12,.18s-.12,.53-.18,1.29c-.07,.72-.07,1.25-.09,1.57-.02,.23-.07,.35-.16,.35-.14,0-.16-.18-.16-.37,0-.21-.02-.44-.09-.64-.09-.35-.37-.67-1.2-.76-.62-.07-2.9-.12-3.3-.12-.12,0-.16,.07-.16,.16v2.03c0,.78-.02,3.46,0,3.94,.05,.95,.18,1.45,.76,1.68,.39,.16,1.01,.21,1.91,.21,.69,0,1.45-.02,2.08-.21,.74-.23,.99-.72,1.18-1.71,.05-.25,.09-.35,.21-.35,.14,0,.14,.18,.14,.35,0,.18-.18,1.75-.3,2.24-.16,.6-.35,.6-1.25,.6-1.71,0-2.47-.05-3.37-.07-.92-.02-1.98-.07-2.88-.07-.55,0-1.11,.09-1.71,.07-.25,0-.37-.05-.37-.18,0-.07,.11-.12,.25-.14,.23-.02,.37-.02,.53-.07,.48-.12,.78-.44,.83-2.17,.02-.9,.05-2.08,.05-4.13v-4.06Z"/><path class="cls-2" d="M56.65,39.38c0-3.6,0-4.24-.05-4.98-.05-.78-.23-1.15-.99-1.31-.18-.05-.58-.07-.78-.07-.09,0-.18-.05-.18-.14,0-.14,.11-.18,.37-.18,1.04,0,2.49,.07,2.61,.07,.25,0,2.01-.07,2.72-.07,1.45,0,3,.14,4.22,1.01,.58,.41,1.59,1.54,1.59,3.14,0,1.71-.72,3.41-2.79,5.33,1.89,2.42,3.46,4.47,4.8,5.9,1.25,1.32,2.24,1.57,2.81,1.66,.44,.07,.76,.07,.9,.07,.12,0,.21,.07,.21,.14,0,.14-.14,.18-.55,.18h-1.64c-1.29,0-1.87-.12-2.47-.44-.99-.53-1.8-1.66-3.11-3.39-.97-1.27-2.05-2.81-2.51-3.41-.09-.09-.16-.14-.3-.14l-2.84-.05c-.11,0-.16,.07-.16,.18v.55c0,2.21,0,4.04,.12,5,.07,.67,.21,1.18,.9,1.27,.32,.05,.83,.09,1.04,.09,.14,0,.18,.07,.18,.14,0,.12-.11,.18-.37,.18-1.27,0-2.72-.07-2.84-.07-.02,0-1.48,.07-2.17,.07-.25,0-.37-.05-.37-.18,0-.07,.05-.14,.18-.14,.21,0,.49-.05,.69-.09,.46-.09,.58-.6,.67-1.27,.11-.97,.11-2.79,.11-5v-4.06Zm1.85,2.01c0,.11,.05,.21,.16,.28,.35,.21,1.41,.37,2.42,.37,.55,0,1.2-.07,1.73-.44,.81-.55,1.41-1.8,1.41-3.55,0-2.88-1.52-4.61-3.99-4.61-.69,0-1.32,.07-1.54,.14-.12,.05-.18,.14-.18,.28v7.54Z"/><path class="cls-2" d="M82.48,43.33c0-8.32,.05-5.33,.02-9.8,0-.9,.07-1.15,.25-1.15s.58,.51,.81,.74c.35,.39,3.78,4.1,7.33,7.91,2.28,2.44,4.8,5.26,5.53,6.02l-.25-11.71c-.02-1.5-.18-2.01-.9-2.19-.41-.09-.78-.11-.99-.11-.25,0-.32-.07-.32-.16,0-.14,.18-.16,.46-.16,1.04,0,2.14,.07,2.4,.07s1.01-.07,1.96-.07c.25,0,.41,.02,.41,.16,0,.09-.09,.14-.25,.16-.18,.02-.32,.05-.6,.09-.65,.14-.81,.48-.81,2.08l-.05,13.47c0,1.52-.05,1.64-.21,1.64-.18,0-.46-.25-1.68-1.48-.25-.23-3.58-3.62-6.02-6.25-2.68-2.88-5.28-5.79-6.02-6.62l.3,11.05c.05,1.89,.28,2.49,.9,2.68,.44,.12,.95,.14,1.15,.14,.12,0,.18,.05,.18,.14,0,.14-.14,.18-.41,.18-1.32,0-2.24-.07-2.45-.07s-1.18,.07-2.21,.07c-.23,0-.37-.02-.37-.18,0-.09,.07-.14,.18-.14,.18,0,.6-.02,.95-.14,.58-.16,.69-.83,.69-2.93v-3.41Z"/><path class="cls-2" d="M115.35,43.33c-.12,0-.18,.07-.23,.18l-1.38,4.08c-.21,.58-.32,1.13-.32,1.54,0,.46,.44,.67,.83,.67h.21c.23,0,.3,.05,.3,.14,0,.14-.21,.18-.41,.18-.55,0-1.48-.07-1.73-.07s-1.52,.07-2.61,.07c-.3,0-.44-.05-.44-.18,0-.09,.12-.14,.32-.14,.16,0,.37-.02,.55-.05,1.06-.14,1.52-1.01,1.94-2.17l5.23-14.32c.28-.76,.37-.9,.51-.9s.23,.12,.51,.83c.35,.88,3.97,10.4,5.37,13.91,.83,2.05,1.5,2.42,1.98,2.56,.35,.12,.72,.14,.9,.14,.14,0,.25,.02,.25,.14,0,.14-.21,.18-.46,.18-.35,0-2.03,0-3.62-.05-.44-.02-.69-.02-.69-.16,0-.09,.07-.14,.16-.16,.14-.05,.28-.25,.14-.62l-2.14-5.67c-.05-.09-.09-.14-.21-.14h-4.96Zm4.66-.83c.12,0,.12-.07,.09-.16l-2.19-6.23c-.12-.35-.23-.35-.35,0l-2.03,6.23c-.05,.11,0,.16,.07,.16h4.4Z"/><path class="cls-2" d="M138.65,43.33c0-8.32,.05-5.33,.02-9.8,0-.9,.07-1.15,.25-1.15s.58,.51,.81,.74c.35,.39,3.78,4.1,7.33,7.91,2.28,2.44,4.8,5.26,5.53,6.02l-.25-11.71c-.02-1.5-.18-2.01-.9-2.19-.41-.09-.78-.11-.99-.11-.25,0-.32-.07-.32-.16,0-.14,.18-.16,.46-.16,1.04,0,2.14,.07,2.4,.07s1.02-.07,1.96-.07c.25,0,.41,.02,.41,.16,0,.09-.09,.14-.25,.16-.18,.02-.32,.05-.6,.09-.65,.14-.81,.48-.81,2.08l-.05,13.47c0,1.52-.05,1.64-.21,1.64-.18,0-.46-.25-1.68-1.48-.25-.23-3.57-3.62-6.02-6.25-2.67-2.88-5.28-5.79-6.02-6.62l.3,11.05c.05,1.89,.28,2.49,.9,2.68,.44,.12,.95,.14,1.15,.14,.12,0,.18,.05,.18,.14,0,.14-.14,.18-.42,.18-1.31,0-2.24-.07-2.44-.07s-1.18,.07-2.21,.07c-.23,0-.37-.02-.37-.18,0-.09,.07-.14,.18-.14,.18,0,.6-.02,.95-.14,.58-.16,.69-.83,.69-2.93v-3.41Z"/><path class="cls-2" d="M170.45,39.38c0-3.6,0-4.24-.05-4.98-.05-.78-.16-1.15-.92-1.31-.18-.05-.58-.07-.78-.07-.16,0-.25-.05-.25-.14,0-.14,.11-.18,.37-.18,1.04,0,2.49,.07,2.61,.07,.28,0,1.73-.07,3.11-.07,2.28,0,6.5-.21,9.25,2.63,1.15,1.2,2.24,3.11,2.24,5.86,0,2.91-1.2,5.14-2.49,6.5-.99,1.04-3.07,2.65-6.99,2.65-.99,0-2.21-.07-3.21-.14-1.01-.07-1.8-.14-1.91-.14-.05,0-.44,0-.92,.02-.46,0-.99,.05-1.34,.05-.25,0-.37-.05-.37-.18,0-.07,.05-.14,.23-.14,.25-.02,.44-.05,.65-.09,.46-.09,.58-.6,.67-1.27,.11-.97,.11-2.79,.11-5v-4.06Zm1.94,2.49c0,2.44,.02,4.57,.05,5,.02,.58,.07,1.5,.25,1.75,.3,.44,1.2,.92,3.92,.92,2.14,0,4.13-.78,5.49-2.14,1.2-1.18,1.85-3.39,1.85-5.51,0-2.93-1.27-4.82-2.21-5.81-2.17-2.28-4.8-2.6-7.54-2.6-.46,0-1.31,.07-1.5,.16-.21,.09-.28,.21-.28,.46-.02,.78-.02,3.14-.02,4.91v2.86Z"/><path class="cls-2" d="M200.46,39.38c0-3.6,0-4.24-.05-4.98-.05-.78-.23-1.15-.99-1.31-.16-.05-.46-.05-.67-.07-.16-.02-.3-.05-.3-.14,0-.14,.12-.18,.37-.18,.53,0,1.15,0,2.6,.07,.16,0,4.75,0,5.28-.02,.51-.02,.92-.07,1.06-.14s.18-.09,.25-.09,.09,.09,.09,.21c0,.16-.14,.44-.18,1.08-.02,.35-.05,.78-.09,1.38-.02,.23-.09,.39-.18,.39-.14,0-.18-.12-.18-.3,0-.3-.05-.58-.11-.76-.16-.53-.65-.76-1.66-.85-.39-.05-2.9-.07-3.16-.07-.09,0-.14,.07-.14,.23v6.36c0,.16,.02,.23,.14,.23,.3,0,3.14,0,3.67-.05,.62-.05,.92-.11,1.15-.39,.11-.14,.18-.23,.28-.23,.07,0,.12,.05,.12,.18s-.12,.53-.18,1.29c-.07,.72-.07,1.25-.09,1.57-.02,.23-.07,.35-.16,.35-.14,0-.16-.18-.16-.37,0-.21-.02-.44-.09-.64-.09-.35-.37-.67-1.2-.76-.62-.07-2.9-.12-3.3-.12-.11,0-.16,.07-.16,.16v2.03c0,.78-.02,3.46,0,3.94,.05,.95,.18,1.45,.76,1.68,.39,.16,1.01,.21,1.91,.21,.69,0,1.45-.02,2.08-.21,.74-.23,.99-.72,1.18-1.71,.05-.25,.09-.35,.21-.35,.14,0,.14,.18,.14,.35,0,.18-.18,1.75-.3,2.24-.16,.6-.35,.6-1.25,.6-1.71,0-2.47-.05-3.37-.07-.92-.02-1.98-.07-2.88-.07-.55,0-1.11,.09-1.71,.07-.25,0-.37-.05-.37-.18,0-.07,.12-.12,.25-.14,.23-.02,.37-.02,.53-.07,.48-.12,.78-.44,.83-2.17,.02-.9,.05-2.08,.05-4.13v-4.06Z"/><path class="cls-2" d="M230.15,49.14c2.42,0,3.16-.44,3.64-1.13,.21-.3,.41-.92,.46-1.24,.05-.23,.09-.37,.21-.37,.14,0,.18,.09,.18,.53,0,.72-.32,2.08-.46,2.65-.14,.55-.16,.6-.69,.6-3.85,0-7.72-.11-11.76-.11-.28,0-.41-.02-.41-.18,0-.12,.05-.23,.32-.65,3.44-5.19,6.92-10.38,10.12-15.59h-5c-1.18,0-2.58,.07-3.32,.46-.83,.44-1.24,1.29-1.31,1.82-.05,.35-.14,.41-.25,.41s-.14-.11-.14-.3c0-.28,.35-2.38,.46-3.07,.05-.32,.09-.44,.23-.44,.21,0,.35,.14,.97,.16,2.19,.09,3.3,.07,4.01,.07h6.43c.35,0,.46,.05,.46,.18,0,.09,0,.14-.09,.28-3.34,5.3-6.83,10.61-10.33,15.91h6.27Z"/></g></g></g></svg>